<svg id="visual" viewBox="0 0 2440 900" width="2440" height="900" xmlns="http://www.w3.org/2000/svg" xmlns:xlink="http://www.w3.org/1999/xlink" version="1.1"><rect x="0" y="0" width="2440" height="900" fill="#F7FFF7"></rect><path d="M0 466L25.5 493.2C51 520.3 102 574.7 152.8 576.2C203.7 577.7 254.3 526.3 305.2 502.5C356 478.7 407 482.3 457.8 482.3C508.7 482.3 559.3 478.7 610.2 488.2C661 497.7 712 520.3 762.8 521.2C813.7 522 864.3 501 915.2 489C966 477 1017 474 1067.8 492.7C1118.7 511.3 1169.3 551.7 1220.2 550.3C1271 549 1322 506 1372.8 499C1423.7 492 1474.3 521 1525.2 539.3C1576 557.7 1627 565.3 1677.8 560C1728.7 554.7 1779.3 536.3 1830.2 527.5C1881 518.7 1932 519.3 1982.8 522.5C2033.7 525.7 2084.3 531.3 2135.2 527C2186 522.7 2237 508.3 2287.8 523C2338.7 537.7 2389.3 581.3 2414.7 603.2L2440 625L2440 901L2414.7 901C2389.3 901 2338.7 901 2287.8 901C2237 901 2186 901 2135.2 901C2084.3 901 2033.7 901 1982.8 901C1932 901 1881 901 1830.2 901C1779.3 901 1728.7 901 1677.8 901C1627 901 1576 901 1525.2 901C1474.3 901 1423.7 901 1372.8 901C1322 901 1271 901 1220.2 901C1169.3 901 1118.7 901 1067.8 901C1017 901 966 901 915.2 901C864.3 901 813.7 901 762.8 901C712 901 661 901 610.2 901C559.3 901 508.7 901 457.8 901C407 901 356 901 305.2 901C254.3 901 203.7 901 152.8 901C102 901 51 901 25.5 901L0 901Z" fill="#4ecdc4"></path><path d="M0 589L25.5 573.5C51 558 102 527 152.8 528.8C203.7 530.7 254.3 565.3 305.2 573.5C356 581.7 407 563.3 457.8 558C508.7 552.7 559.3 560.3 610.2 572.8C661 585.3 712 602.7 762.8 593.5C813.7 584.3 864.3 548.7 915.2 532C966 515.3 1017 517.7 1067.8 540.7C1118.7 563.7 1169.3 607.3 1220.2 612.3C1271 617.3 1322 583.7 1372.8 573C1423.7 562.3 1474.3 574.7 1525.2 592C1576 609.3 1627 631.7 1677.8 638.7C1728.7 645.7 1779.3 637.3 1830.2 633C1881 628.7 1932 628.3 1982.8 622C2033.7 615.7 2084.3 603.3 2135.2 604.5C2186 605.7 2237 620.3 2287.8 630.5C2338.7 640.7 2389.3 646.3 2414.7 649.2L2440 652L2440 901L2414.7 901C2389.3 901 2338.7 901 2287.8 901C2237 901 2186 901 2135.2 901C2084.3 901 2033.7 901 1982.8 901C1932 901 1881 901 1830.2 901C1779.3 901 1728.7 901 1677.8 901C1627 901 1576 901 1525.2 901C1474.3 901 1423.7 901 1372.8 901C1322 901 1271 901 1220.2 901C1169.3 901 1118.7 901 1067.8 901C1017 901 966 901 915.2 901C864.3 901 813.7 901 762.8 901C712 901 661 901 610.2 901C559.3 901 508.7 901 457.8 901C407 901 356 901 305.2 901C254.3 901 203.7 901 152.8 901C102 901 51 901 25.5 901L0 901Z" fill="#36bec1"></path><path d="M0 579L25.5 574.8C51 570.7 102 562.3 152.8 572.7C203.7 583 254.3 612 305.2 617.8C356 623.7 407 606.3 457.8 611.8C508.7 617.3 559.3 645.7 610.2 638.7C661 631.7 712 589.3 762.8 589C813.7 588.7 864.3 630.3 915.2 652.3C966 674.3 1017 676.7 1067.8 675C1118.7 673.3 1169.3 667.7 1220.2 657.8C1271 648 1322 634 1372.8 633.7C1423.7 633.3 1474.3 646.7 1525.2 630.2C1576 613.7 1627 567.3 1677.8 561.5C1728.7 555.7 1779.3 590.3 1830.2 590.8C1881 591.3 1932 557.7 1982.8 554.7C2033.7 551.7 2084.3 579.3 2135.2 589.8C2186 600.3 2237 593.7 2287.8 585.7C2338.7 577.7 2389.3 568.3 2414.7 563.7L2440 559L2440 901L2414.7 901C2389.3 901 2338.7 901 2287.8 901C2237 901 2186 901 2135.2 901C2084.3 901 2033.7 901 1982.8 901C1932 901 1881 901 1830.2 901C1779.3 901 1728.7 901 1677.8 901C1627 901 1576 901 1525.2 901C1474.3 901 1423.7 901 1372.8 901C1322 901 1271 901 1220.2 901C1169.3 901 1118.7 901 1067.8 901C1017 901 966 901 915.2 901C864.3 901 813.7 901 762.8 901C712 901 661 901 610.2 901C559.3 901 508.7 901 457.8 901C407 901 356 901 305.2 901C254.3 901 203.7 901 152.8 901C102 901 51 901 25.5 901L0 901Z" fill="#1eafbc"></path><path d="M0 691L25.5 688.3C51 685.7 102 680.3 152.8 674.5C203.7 668.7 254.3 662.3 305.2 661.2C356 660 407 664 457.8 660.5C508.7 657 559.3 646 610.2 628C661 610 712 585 762.8 577.5C813.7 570 864.3 580 915.2 597.2C966 614.3 1017 638.7 1067.8 640.7C1118.7 642.7 1169.3 622.3 1220.2 623C1271 623.7 1322 645.3 1372.8 638.2C1423.7 631 1474.3 595 1525.2 579.3C1576 563.7 1627 568.3 1677.8 580.3C1728.7 592.3 1779.3 611.7 1830.2 633C1881 654.3 1932 677.7 1982.8 665.5C2033.7 653.3 2084.3 605.7 2135.2 603.5C2186 601.3 2237 644.7 2287.8 662.3C2338.7 680 2389.3 672 2414.7 668L2440 664L2440 901L2414.7 901C2389.3 901 2338.7 901 2287.8 901C2237 901 2186 901 2135.2 901C2084.3 901 2033.7 901 1982.8 901C1932 901 1881 901 1830.2 901C1779.3 901 1728.7 901 1677.8 901C1627 901 1576 901 1525.2 901C1474.3 901 1423.7 901 1372.8 901C1322 901 1271 901 1220.2 901C1169.3 901 1118.7 901 1067.8 901C1017 901 966 901 915.2 901C864.3 901 813.7 901 762.8 901C712 901 661 901 610.2 901C559.3 901 508.7 901 457.8 901C407 901 356 901 305.2 901C254.3 901 203.7 901 152.8 901C102 901 51 901 25.5 901L0 901Z" fill="#059fb6"></path><path d="M0 601L25.5 601.8C51 602.7 102 604.3 152.8 611.8C203.7 619.3 254.3 632.7 305.2 629.7C356 626.7 407 607.3 457.8 600.8C508.7 594.3 559.3 600.7 610.2 614.5C661 628.3 712 649.7 762.8 647.8C813.7 646 864.3 621 915.2 622C966 623 1017 650 1067.8 652.2C1118.7 654.3 1169.3 631.7 1220.2 629C1271 626.3 1322 643.7 1372.8 650.2C1423.7 656.7 1474.3 652.3 1525.2 659.7C1576 667 1627 686 1677.8 690.8C1728.7 695.7 1779.3 686.3 1830.2 670.7C1881 655 1932 633 1982.8 630.5C2033.7 628 2084.3 645 2135.2 657.8C2186 670.7 2237 679.3 2287.8 667.5C2338.7 655.7 2389.3 623.3 2414.7 607.2L2440 591L2440 901L2414.7 901C2389.3 901 2338.7 901 2287.8 901C2237 901 2186 901 2135.2 901C2084.3 901 2033.7 901 1982.8 901C1932 901 1881 901 1830.2 901C1779.3 901 1728.7 901 1677.8 901C1627 901 1576 901 1525.2 901C1474.3 901 1423.7 901 1372.8 901C1322 901 1271 901 1220.2 901C1169.3 901 1118.7 901 1067.8 901C1017 901 966 901 915.2 901C864.3 901 813.7 901 762.8 901C712 901 661 901 610.2 901C559.3 901 508.7 901 457.8 901C407 901 356 901 305.2 901C254.3 901 203.7 901 152.8 901C102 901 51 901 25.5 901L0 901Z" fill="#0090ae"></path><path d="M0 631L25.5 636.3C51 641.7 102 652.3 152.8 653.3C203.7 654.3 254.3 645.7 305.2 656C356 666.3 407 695.7 457.8 693.7C508.7 691.7 559.3 658.3 610.2 648.5C661 638.7 712 652.3 762.8 658.8C813.7 665.3 864.3 664.7 915.2 678C966 691.3 1017 718.7 1067.8 715.3C1118.7 712 1169.3 678 1220.2 660.2C1271 642.3 1322 640.7 1372.8 640.7C1423.7 640.7 1474.3 642.3 1525.2 658.2C1576 674 1627 704 1677.8 718C1728.7 732 1779.3 730 1830.2 728.5C1881 727 1932 726 1982.8 718.2C2033.7 710.3 2084.3 695.7 2135.2 678.7C2186 661.7 2237 642.3 2287.8 646C2338.7 649.7 2389.3 676.3 2414.7 689.7L2440 703L2440 901L2414.7 901C2389.3 901 2338.7 901 2287.8 901C2237 901 2186 901 2135.2 901C2084.3 901 2033.7 901 1982.8 901C1932 901 1881 901 1830.2 901C1779.3 901 1728.7 901 1677.8 901C1627 901 1576 901 1525.2 901C1474.3 901 1423.7 901 1372.8 901C1322 901 1271 901 1220.2 901C1169.3 901 1118.7 901 1067.8 901C1017 901 966 901 915.2 901C864.3 901 813.7 901 762.8 901C712 901 661 901 610.2 901C559.3 901 508.7 901 457.8 901C407 901 356 901 305.2 901C254.3 901 203.7 901 152.8 901C102 901 51 901 25.5 901L0 901Z" fill="#0481a4"></path><path d="M0 762L25.5 755C51 748 102 734 152.8 723C203.7 712 254.3 704 305.2 698.2C356 692.3 407 688.7 457.8 689.7C508.7 690.7 559.3 696.3 610.2 705C661 713.7 712 725.3 762.8 718.7C813.7 712 864.3 687 915.2 693C966 699 1017 736 1067.8 745.7C1118.7 755.3 1169.3 737.7 1220.2 719C1271 700.3 1322 680.7 1372.8 670.5C1423.7 660.3 1474.3 659.7 1525.2 667.7C1576 675.7 1627 692.3 1677.8 710.2C1728.7 728 1779.3 747 1830.2 742.8C1881 738.7 1932 711.3 1982.8 700.5C2033.7 689.7 2084.3 695.3 2135.2 709C2186 722.7 2237 744.3 2287.8 752.5C2338.7 760.7 2389.3 755.3 2414.7 752.7L2440 750L2440 901L2414.7 901C2389.3 901 2338.7 901 2287.8 901C2237 901 2186 901 2135.2 901C2084.3 901 2033.7 901 1982.8 901C1932 901 1881 901 1830.2 901C1779.3 901 1728.7 901 1677.8 901C1627 901 1576 901 1525.2 901C1474.3 901 1423.7 901 1372.8 901C1322 901 1271 901 1220.2 901C1169.3 901 1118.7 901 1067.8 901C1017 901 966 901 915.2 901C864.3 901 813.7 901 762.8 901C712 901 661 901 610.2 901C559.3 901 508.7 901 457.8 901C407 901 356 901 305.2 901C254.3 901 203.7 901 152.8 901C102 901 51 901 25.5 901L0 901Z" fill="#157199"></path><path d="M0 766L25.5 759.7C51 753.3 102 740.7 152.8 740.2C203.7 739.7 254.3 751.3 305.2 749.7C356 748 407 733 457.8 730.3C508.7 727.7 559.3 737.3 610.2 747.7C661 758 712 769 762.8 761.2C813.7 753.3 864.3 726.7 915.2 722C966 717.3 1017 734.7 1067.8 740C1118.7 745.3 1169.3 738.7 1220.2 744.2C1271 749.7 1322 767.3 1372.8 766.7C1423.7 766 1474.3 747 1525.2 735.7C1576 724.3 1627 720.7 1677.8 719.7C1728.7 718.7 1779.3 720.3 1830.2 718.2C1881 716 1932 710 1982.8 716.5C2033.7 723 2084.3 742 2135.2 753C2186 764 2237 767 2287.8 756.5C2338.7 746 2389.3 722 2414.7 710L2440 698L2440 901L2414.7 901C2389.3 901 2338.7 901 2287.8 901C2237 901 2186 901 2135.2 901C2084.3 901 2033.7 901 1982.8 901C1932 901 1881 901 1830.2 901C1779.3 901 1728.7 901 1677.8 901C1627 901 1576 901 1525.2 901C1474.3 901 1423.7 901 1372.8 901C1322 901 1271 901 1220.2 901C1169.3 901 1118.7 901 1067.8 901C1017 901 966 901 915.2 901C864.3 901 813.7 901 762.8 901C712 901 661 901 610.2 901C559.3 901 508.7 901 457.8 901C407 901 356 901 305.2 901C254.3 901 203.7 901 152.8 901C102 901 51 901 25.5 901L0 901Z" fill="#20628c"></path><path d="M0 809L25.5 796.3C51 783.7 102 758.3 152.8 747.3C203.7 736.3 254.3 739.7 305.2 753.8C356 768 407 793 457.8 802.5C508.7 812 559.3 806 610.2 799.7C661 793.3 712 786.7 762.8 789C813.7 791.3 864.3 802.7 915.2 800.8C966 799 1017 784 1067.8 776.2C1118.7 768.3 1169.3 767.7 1220.2 771.7C1271 775.7 1322 784.3 1372.8 790C1423.7 795.7 1474.3 798.3 1525.2 803.5C1576 808.7 1627 816.3 1677.8 805C1728.7 793.7 1779.3 763.3 1830.2 754C1881 744.7 1932 756.3 1982.8 763C2033.7 769.7 2084.3 771.3 2135.2 771.7C2186 772 2237 771 2287.8 766.7C2338.7 762.3 2389.3 754.7 2414.7 750.8L2440 747L2440 901L2414.7 901C2389.3 901 2338.7 901 2287.8 901C2237 901 2186 901 2135.2 901C2084.3 901 2033.7 901 1982.8 901C1932 901 1881 901 1830.2 901C1779.3 901 1728.7 901 1677.8 901C1627 901 1576 901 1525.2 901C1474.3 901 1423.7 901 1372.8 901C1322 901 1271 901 1220.2 901C1169.3 901 1118.7 901 1067.8 901C1017 901 966 901 915.2 901C864.3 901 813.7 901 762.8 901C712 901 661 901 610.2 901C559.3 901 508.7 901 457.8 901C407 901 356 901 305.2 901C254.3 901 203.7 901 152.8 901C102 901 51 901 25.5 901L0 901Z" fill="#28537e"></path><path d="M0 788L25.5 794.2C51 800.3 102 812.7 152.8 813C203.7 813.3 254.3 801.7 305.2 800.2C356 798.7 407 807.3 457.8 811C508.7 814.7 559.3 813.3 610.2 805.7C661 798 712 784 762.8 784.8C813.7 785.7 864.3 801.3 915.2 805.2C966 809 1017 801 1067.8 804.3C1118.7 807.7 1169.3 822.3 1220.2 826.5C1271 830.7 1322 824.3 1372.8 812.3C1423.7 800.3 1474.3 782.7 1525.2 788C1576 793.3 1627 821.7 1677.8 827C1728.7 832.3 1779.3 814.7 1830.2 803.8C1881 793 1932 789 1982.8 783.2C2033.7 777.3 2084.3 769.7 2135.2 768.5C2186 767.3 2237 772.7 2287.8 782.8C2338.7 793 2389.3 808 2414.7 815.5L2440 823L2440 901L2414.7 901C2389.3 901 2338.7 901 2287.8 901C2237 901 2186 901 2135.2 901C2084.3 901 2033.7 901 1982.8 901C1932 901 1881 901 1830.2 901C1779.3 901 1728.7 901 1677.8 901C1627 901 1576 901 1525.2 901C1474.3 901 1423.7 901 1372.8 901C1322 901 1271 901 1220.2 901C1169.3 901 1118.7 901 1067.8 901C1017 901 966 901 915.2 901C864.3 901 813.7 901 762.8 901C712 901 661 901 610.2 901C559.3 901 508.7 901 457.8 901C407 901 356 901 305.2 901C254.3 901 203.7 901 152.8 901C102 901 51 901 25.5 901L0 901Z" fill="#2d456f"></path><path d="M0 813L25.5 810.7C51 808.3 102 803.7 152.8 808.2C203.7 812.7 254.3 826.3 305.2 830.5C356 834.7 407 829.3 457.8 833.7C508.7 838 559.3 852 610.2 855.3C661 858.7 712 851.3 762.8 841.2C813.7 831 864.3 818 915.2 811C966 804 1017 803 1067.8 805.7C1118.7 808.3 1169.3 814.7 1220.2 826.5C1271 838.3 1322 855.7 1372.8 855.8C1423.7 856 1474.3 839 1525.2 830C1576 821 1627 820 1677.8 827.3C1728.7 834.7 1779.3 850.3 1830.2 856.5C1881 862.7 1932 859.3 1982.8 858.7C2033.7 858 2084.3 860 2135.2 861.3C2186 862.7 2237 863.3 2287.8 858.5C2338.7 853.7 2389.3 843.3 2414.7 838.2L2440 833L2440 901L2414.7 901C2389.3 901 2338.7 901 2287.8 901C2237 901 2186 901 2135.2 901C2084.3 901 2033.7 901 1982.8 901C1932 901 1881 901 1830.2 901C1779.3 901 1728.7 901 1677.8 901C1627 901 1576 901 1525.2 901C1474.3 901 1423.7 901 1372.8 901C1322 901 1271 901 1220.2 901C1169.3 901 1118.7 901 1067.8 901C1017 901 966 901 915.2 901C864.3 901 813.7 901 762.8 901C712 901 661 901 610.2 901C559.3 901 508.7 901 457.8 901C407 901 356 901 305.2 901C254.3 901 203.7 901 152.8 901C102 901 51 901 25.5 901L0 901Z" fill="#2f375f"></path><path d="M0 847L25.5 851.5C51 856 102 865 152.8 862.3C203.7 859.7 254.3 845.3 305.2 847.7C356 850 407 869 457.8 874.5C508.7 880 559.3 872 610.2 870.3C661 868.7 712 873.3 762.8 877.7C813.7 882 864.3 886 915.2 883.3C966 880.7 1017 871.3 1067.8 872.2C1118.7 873 1169.3 884 1220.2 884.8C1271 885.7 1322 876.3 1372.8 869.2C1423.7 862 1474.3 857 1525.2 857C1576 857 1627 862 1677.8 869C1728.7 876 1779.3 885 1830.2 884.3C1881 883.7 1932 873.3 1982.8 873.5C2033.7 873.7 2084.3 884.3 2135.2 886.5C2186 888.7 2237 882.3 2287.8 876.3C2338.7 870.3 2389.3 864.7 2414.7 861.8L2440 859L2440 901L2414.7 901C2389.3 901 2338.7 901 2287.8 901C2237 901 2186 901 2135.2 901C2084.3 901 2033.7 901 1982.8 901C1932 901 1881 901 1830.2 901C1779.3 901 1728.7 901 1677.8 901C1627 901 1576 901 1525.2 901C1474.3 901 1423.7 901 1372.8 901C1322 901 1271 901 1220.2 901C1169.3 901 1118.7 901 1067.8 901C1017 901 966 901 915.2 901C864.3 901 813.7 901 762.8 901C712 901 661 901 610.2 901C559.3 901 508.7 901 457.8 901C407 901 356 901 305.2 901C254.3 901 203.7 901 152.8 901C102 901 51 901 25.5 901L0 901Z" fill="#2e294e"></path></svg>