<svg xmlns="http://www.w3.org/2000/svg" version="1.1" xmlns:xlink="http://www.w3.org/1999/xlink" xmlns:svgjs="http://svgjs.com/svgjs" width="2048" height="560" preserveAspectRatio="none" viewBox="0 0 2048 560"><g mask="url(&quot;#SvgjsMask1761&quot;)" fill="none"><rect width="2048" height="560" x="0" y="0" fill="url(#SvgjsLinearGradient1762)"></rect><path d="M 0,417 C 68.4,376.4 205.2,233 342,214 C 478.8,195 547.2,341.4 684,322 C 820.8,302.6 889.2,104.2 1026,117 C 1162.8,129.8 1231.2,380.4 1368,386 C 1504.8,391.6 1574,122 1710,145 C 1846,168 1980.4,429.8 2048,501L2048 560L0 560z" fill="rgba(46, 41, 78, 0.89)"></path><path d="M 0,123 C 68.4,206.2 205.2,519 342,539 C 478.8,559 547.2,238.4 684,223 C 820.8,207.6 889.2,479.4 1026,462 C 1162.8,444.6 1231.2,136 1368,136 C 1504.8,136 1574,467.4 1710,462 C 1846,456.6 1980.4,179.6 2048,109L2048 560L0 560z" fill="rgba(78, 205, 196, 0.94)"></path><path d="M 0,34 C 82,111.4 246,397.8 410,421 C 574,444.2 656,173.6 820,150 C 984,126.4 1066,285 1230,303 C 1394,321 1476.4,212.4 1640,240 C 1803.6,267.6 1966.4,400.8 2048,441L2048 560L0 560z" fill="rgba(36, 106, 115, 0.65)"></path></g><defs><mask id="SvgjsMask1761"><rect width="2048" height="560" fill="#ffffff"></rect></mask><linearGradient x1="100%" y1="50%" x2="0%" y2="50%" gradientUnits="userSpaceOnUse" id="SvgjsLinearGradient1762"><stop stop-color="rgba(247, 255, 247, 1)" offset="0.36"></stop><stop stop-color="rgba(215, 205, 204, 1)" offset="0.78"></stop></linearGradient></defs></svg>