<svg id="visual" viewBox="0 0 5000 1500" width="5000" height="1500" xmlns="http://www.w3.org/2000/svg" xmlns:xlink="http://www.w3.org/1999/xlink" version="1.1"><rect x="0" y="0" width="5000" height="1500" fill="#F7FFF7"></rect><path d="M0 777L52.2 822.5C104.3 868 208.7 959 312.8 961.5C417 964 521 878 625.2 838.2C729.3 798.3 833.7 804.7 937.8 804.8C1042 805 1146 799 1250.2 814.7C1354.3 830.3 1458.7 867.7 1562.8 868.8C1667 870 1771 835 1875.2 815C1979.3 795 2083.7 790 2187.8 821.3C2292 852.7 2396 920.3 2500.2 918.2C2604.3 916 2708.7 844 2812.8 832.3C2917 820.7 3021 869.3 3125.2 899.8C3229.3 930.3 3333.7 942.7 3437.8 933.5C3542 924.3 3646 893.7 3750.2 879C3854.3 864.3 3958.7 865.7 4062.8 871C4167 876.3 4271 885.7 4375.2 878.3C4479.3 871 4583.7 847 4687.8 871.7C4792 896.3 4896 969.7 4948 1006.3L5000 1043L5000 1501L4948 1501C4896 1501 4792 1501 4687.8 1501C4583.7 1501 4479.3 1501 4375.2 1501C4271 1501 4167 1501 4062.8 1501C3958.7 1501 3854.3 1501 3750.2 1501C3646 1501 3542 1501 3437.8 1501C3333.7 1501 3229.3 1501 3125.2 1501C3021 1501 2917 1501 2812.8 1501C2708.7 1501 2604.3 1501 2500.2 1501C2396 1501 2292 1501 2187.8 1501C2083.7 1501 1979.3 1501 1875.2 1501C1771 1501 1667 1501 1562.8 1501C1458.7 1501 1354.3 1501 1250.2 1501C1146 1501 1042 1501 937.8 1501C833.7 1501 729.3 1501 625.2 1501C521 1501 417 1501 312.8 1501C208.7 1501 104.3 1501 52.2 1501L0 1501Z" fill="#4ecdc4"></path><path d="M0 982L52.2 956.3C104.3 930.7 208.7 879.3 312.8 882.5C417 885.7 521 943.3 625.2 957C729.3 970.7 833.7 940.3 937.8 931.5C1042 922.7 1146 935.3 1250.2 956C1354.3 976.7 1458.7 1005.3 1562.8 990C1667 974.7 1771 915.3 1875.2 887.5C1979.3 859.7 2083.7 863.3 2187.8 901.7C2292 940 2396 1013 2500.2 1021.3C2604.3 1029.7 2708.7 973.3 2812.8 955.3C2917 937.3 3021 957.7 3125.2 986.5C3229.3 1015.3 3333.7 1052.7 3437.8 1064.5C3542 1076.3 3646 1062.7 3750.2 1055.7C3854.3 1048.7 3958.7 1048.3 4062.8 1037.8C4167 1027.3 4271 1006.7 4375.2 1008.7C4479.3 1010.7 4583.7 1035.3 4687.8 1052.2C4792 1069 4896 1078 4948 1082.5L5000 1087L5000 1501L4948 1501C4896 1501 4792 1501 4687.8 1501C4583.7 1501 4479.3 1501 4375.2 1501C4271 1501 4167 1501 4062.8 1501C3958.7 1501 3854.3 1501 3750.2 1501C3646 1501 3542 1501 3437.8 1501C3333.7 1501 3229.3 1501 3125.2 1501C3021 1501 2917 1501 2812.8 1501C2708.7 1501 2604.3 1501 2500.2 1501C2396 1501 2292 1501 2187.8 1501C2083.7 1501 1979.3 1501 1875.2 1501C1771 1501 1667 1501 1562.8 1501C1458.7 1501 1354.3 1501 1250.2 1501C1146 1501 1042 1501 937.8 1501C833.7 1501 729.3 1501 625.2 1501C521 1501 417 1501 312.8 1501C208.7 1501 104.3 1501 52.2 1501L0 1501Z" fill="#36bec1"></path><path d="M0 965L52.2 958.2C104.3 951.3 208.7 937.7 312.8 955C417 972.3 521 1020.7 625.2 1030.3C729.3 1040 833.7 1011 937.8 1020.2C1042 1029.3 1146 1076.7 1250.2 1065C1354.3 1053.3 1458.7 982.7 1562.8 982.2C1667 981.7 1771 1051.3 1875.2 1088C1979.3 1124.7 2083.7 1128.3 2187.8 1125.3C2292 1122.3 2396 1112.7 2500.2 1096.3C2604.3 1080 2708.7 1057 2812.8 1056.7C2917 1056.3 3021 1078.7 3125.2 1051C3229.3 1023.3 3333.7 945.7 3437.8 935.8C3542 926 3646 984 3750.2 985C3854.3 986 3958.7 930 4062.8 925C4167 920 4271 966 4375.2 983.5C4479.3 1001 4583.7 990 4687.8 976.7C4792 963.3 4896 947.7 4948 939.8L5000 932L5000 1501L4948 1501C4896 1501 4792 1501 4687.8 1501C4583.7 1501 4479.3 1501 4375.2 1501C4271 1501 4167 1501 4062.8 1501C3958.7 1501 3854.3 1501 3750.2 1501C3646 1501 3542 1501 3437.8 1501C3333.7 1501 3229.3 1501 3125.2 1501C3021 1501 2917 1501 2812.8 1501C2708.7 1501 2604.3 1501 2500.2 1501C2396 1501 2292 1501 2187.8 1501C2083.7 1501 1979.3 1501 1875.2 1501C1771 1501 1667 1501 1562.8 1501C1458.7 1501 1354.3 1501 1250.2 1501C1146 1501 1042 1501 937.8 1501C833.7 1501 729.3 1501 625.2 1501C521 1501 417 1501 312.8 1501C208.7 1501 104.3 1501 52.2 1501L0 1501Z" fill="#1eafbc"></path><path d="M0 1152L52.2 1147.5C104.3 1143 208.7 1134 312.8 1124.3C417 1114.7 521 1104.3 625.2 1102.5C729.3 1100.7 833.7 1107.3 937.8 1101.7C1042 1096 1146 1078 1250.2 1048C1354.3 1018 1458.7 976 1562.8 963.3C1667 950.7 1771 967.3 1875.2 995.8C1979.3 1024.3 2083.7 1064.7 2187.8 1068C2292 1071.3 2396 1037.7 2500.2 1038.8C2604.3 1040 2708.7 1076 2812.8 1064C2917 1052 3021 992 3125.2 965.8C3229.3 939.7 3333.7 947.3 3437.8 967.3C3542 987.3 3646 1019.7 3750.2 1055.3C3854.3 1091 3958.7 1130 4062.8 1109.8C4167 1089.7 4271 1010.3 4375.2 1006.8C4479.3 1003.3 4583.7 1075.7 4687.8 1105.2C4792 1134.7 4896 1121.3 4948 1114.7L5000 1108L5000 1501L4948 1501C4896 1501 4792 1501 4687.8 1501C4583.7 1501 4479.3 1501 4375.2 1501C4271 1501 4167 1501 4062.8 1501C3958.7 1501 3854.3 1501 3750.2 1501C3646 1501 3542 1501 3437.8 1501C3333.7 1501 3229.3 1501 3125.2 1501C3021 1501 2917 1501 2812.8 1501C2708.7 1501 2604.3 1501 2500.2 1501C2396 1501 2292 1501 2187.8 1501C2083.7 1501 1979.3 1501 1875.2 1501C1771 1501 1667 1501 1562.8 1501C1458.7 1501 1354.3 1501 1250.2 1501C1146 1501 1042 1501 937.8 1501C833.7 1501 729.3 1501 625.2 1501C521 1501 417 1501 312.8 1501C208.7 1501 104.3 1501 52.2 1501L0 1501Z" fill="#059fb6"></path><path d="M0 1002L52.2 1003.3C104.3 1004.7 208.7 1007.3 312.8 1019.8C417 1032.3 521 1054.7 625.2 1049.8C729.3 1045 833.7 1013 937.8 1002.3C1042 991.7 1146 1002.3 1250.2 1025.3C1354.3 1048.3 1458.7 1083.7 1562.8 1080.3C1667 1077 1771 1035 1875.2 1036.8C1979.3 1038.7 2083.7 1084.3 2187.8 1088.2C2292 1092 2396 1054 2500.2 1049.3C2604.3 1044.7 2708.7 1073.3 2812.8 1084.2C2917 1095 3021 1088 3125.2 1100.3C3229.3 1112.7 3333.7 1144.3 3437.8 1152.2C3542 1160 3646 1144 3750.2 1117.8C3854.3 1091.7 3958.7 1055.3 4062.8 1051.3C4167 1047.3 4271 1075.7 4375.2 1097.2C4479.3 1118.7 4583.7 1133.3 4687.8 1113.7C4792 1094 4896 1040 4948 1013L5000 986L5000 1501L4948 1501C4896 1501 4792 1501 4687.8 1501C4583.7 1501 4479.3 1501 4375.2 1501C4271 1501 4167 1501 4062.8 1501C3958.7 1501 3854.3 1501 3750.2 1501C3646 1501 3542 1501 3437.8 1501C3333.7 1501 3229.3 1501 3125.2 1501C3021 1501 2917 1501 2812.8 1501C2708.7 1501 2604.3 1501 2500.2 1501C2396 1501 2292 1501 2187.8 1501C2083.7 1501 1979.3 1501 1875.2 1501C1771 1501 1667 1501 1562.8 1501C1458.7 1501 1354.3 1501 1250.2 1501C1146 1501 1042 1501 937.8 1501C833.7 1501 729.3 1501 625.2 1501C521 1501 417 1501 312.8 1501C208.7 1501 104.3 1501 52.2 1501L0 1501Z" fill="#0090ae"></path><path d="M0 1052L52.2 1060.8C104.3 1069.7 208.7 1087.3 312.8 1089C417 1090.7 521 1076.3 625.2 1093.7C729.3 1111 833.7 1160 937.8 1156.7C1042 1153.3 1146 1097.7 1250.2 1081.3C1354.3 1065 1458.7 1088 1562.8 1098.8C1667 1109.7 1771 1108.3 1875.2 1130.7C1979.3 1153 2083.7 1199 2187.8 1193.5C2292 1188 2396 1131 2500.2 1101.2C2604.3 1071.3 2708.7 1068.7 2812.8 1068.7C2917 1068.7 3021 1071.3 3125.2 1097.8C3229.3 1124.3 3333.7 1174.7 3437.8 1198C3542 1221.3 3646 1217.7 3750.2 1214.8C3854.3 1212 3958.7 1210 4062.8 1197C4167 1184 4271 1160 4375.2 1131.8C4479.3 1103.7 4583.7 1071.3 4687.8 1077.3C4792 1083.3 4896 1127.7 4948 1149.8L5000 1172L5000 1501L4948 1501C4896 1501 4792 1501 4687.8 1501C4583.7 1501 4479.3 1501 4375.2 1501C4271 1501 4167 1501 4062.8 1501C3958.7 1501 3854.3 1501 3750.2 1501C3646 1501 3542 1501 3437.8 1501C3333.7 1501 3229.3 1501 3125.2 1501C3021 1501 2917 1501 2812.8 1501C2708.7 1501 2604.3 1501 2500.2 1501C2396 1501 2292 1501 2187.8 1501C2083.7 1501 1979.3 1501 1875.2 1501C1771 1501 1667 1501 1562.8 1501C1458.7 1501 1354.3 1501 1250.2 1501C1146 1501 1042 1501 937.8 1501C833.7 1501 729.3 1501 625.2 1501C521 1501 417 1501 312.8 1501C208.7 1501 104.3 1501 52.2 1501L0 1501Z" fill="#0481a4"></path><path d="M0 1271L52.2 1259.3C104.3 1247.7 208.7 1224.3 312.8 1206C417 1187.7 521 1174.3 625.2 1164.5C729.3 1154.7 833.7 1148.3 937.8 1150C1042 1151.7 1146 1161.3 1250.2 1175.7C1354.3 1190 1458.7 1209 1562.8 1197.7C1667 1186.3 1771 1144.7 1875.2 1154.7C1979.3 1164.7 2083.7 1226.3 2187.8 1242.7C2292 1259 2396 1230 2500.2 1199.2C2604.3 1168.3 2708.7 1135.7 2812.8 1118.5C2917 1101.3 3021 1099.7 3125.2 1113C3229.3 1126.3 3333.7 1154.7 3437.8 1184.5C3542 1214.3 3646 1245.7 3750.2 1238.7C3854.3 1231.7 3958.7 1186.3 4062.8 1168.3C4167 1150.3 4271 1159.7 4375.2 1182.5C4479.3 1205.3 4583.7 1241.7 4687.8 1255.2C4792 1268.7 4896 1259.3 4948 1254.7L5000 1250L5000 1501L4948 1501C4896 1501 4792 1501 4687.8 1501C4583.7 1501 4479.3 1501 4375.2 1501C4271 1501 4167 1501 4062.8 1501C3958.7 1501 3854.3 1501 3750.2 1501C3646 1501 3542 1501 3437.8 1501C3333.7 1501 3229.3 1501 3125.2 1501C3021 1501 2917 1501 2812.8 1501C2708.7 1501 2604.3 1501 2500.2 1501C2396 1501 2292 1501 2187.8 1501C2083.7 1501 1979.3 1501 1875.2 1501C1771 1501 1667 1501 1562.8 1501C1458.7 1501 1354.3 1501 1250.2 1501C1146 1501 1042 1501 937.8 1501C833.7 1501 729.3 1501 625.2 1501C521 1501 417 1501 312.8 1501C208.7 1501 104.3 1501 52.2 1501L0 1501Z" fill="#157199"></path><path d="M0 1278L52.2 1267.2C104.3 1256.3 208.7 1234.7 312.8 1233.7C417 1232.7 521 1252.3 625.2 1249.7C729.3 1247 833.7 1222 937.8 1217.5C1042 1213 1146 1229 1250.2 1246.3C1354.3 1263.7 1458.7 1282.3 1562.8 1269.3C1667 1256.3 1771 1211.7 1875.2 1203.8C1979.3 1196 2083.7 1225 2187.8 1234C2292 1243 2396 1232 2500.2 1241.2C2604.3 1250.3 2708.7 1279.7 2812.8 1278.3C2917 1277 3021 1245 3125.2 1226C3229.3 1207 3333.7 1201 3437.8 1199.3C3542 1197.7 3646 1200.3 3750.2 1196.8C3854.3 1193.3 3958.7 1183.7 4062.8 1194.7C4167 1205.7 4271 1237.3 4375.2 1255.7C4479.3 1274 4583.7 1279 4687.8 1261.5C4792 1244 4896 1204 4948 1184L5000 1164L5000 1501L4948 1501C4896 1501 4792 1501 4687.8 1501C4583.7 1501 4479.3 1501 4375.2 1501C4271 1501 4167 1501 4062.8 1501C3958.7 1501 3854.3 1501 3750.2 1501C3646 1501 3542 1501 3437.8 1501C3333.7 1501 3229.3 1501 3125.2 1501C3021 1501 2917 1501 2812.8 1501C2708.7 1501 2604.3 1501 2500.2 1501C2396 1501 2292 1501 2187.8 1501C2083.7 1501 1979.3 1501 1875.2 1501C1771 1501 1667 1501 1562.8 1501C1458.7 1501 1354.3 1501 1250.2 1501C1146 1501 1042 1501 937.8 1501C833.7 1501 729.3 1501 625.2 1501C521 1501 417 1501 312.8 1501C208.7 1501 104.3 1501 52.2 1501L0 1501Z" fill="#20628c"></path><path d="M0 1349L52.2 1327.8C104.3 1306.7 208.7 1264.3 312.8 1246C417 1227.7 521 1233.3 625.2 1257.2C729.3 1281 833.7 1323 937.8 1338.8C1042 1354.7 1146 1344.3 1250.2 1333.5C1354.3 1322.7 1458.7 1311.3 1562.8 1315.2C1667 1319 1771 1338 1875.2 1335C1979.3 1332 2083.7 1307 2187.8 1293.8C2292 1280.7 2396 1279.3 2500.2 1286.2C2604.3 1293 2708.7 1308 2812.8 1317.7C2917 1327.3 3021 1331.7 3125.2 1340.2C3229.3 1348.7 3333.7 1361.3 3437.8 1342.3C3542 1323.3 3646 1272.7 3750.2 1257C3854.3 1241.3 3958.7 1260.7 4062.8 1271.8C4167 1283 4271 1286 4375.2 1286.7C4479.3 1287.3 4583.7 1285.7 4687.8 1278.3C4792 1271 4896 1258 4948 1251.5L5000 1245L5000 1501L4948 1501C4896 1501 4792 1501 4687.8 1501C4583.7 1501 4479.3 1501 4375.2 1501C4271 1501 4167 1501 4062.8 1501C3958.7 1501 3854.3 1501 3750.2 1501C3646 1501 3542 1501 3437.8 1501C3333.7 1501 3229.3 1501 3125.2 1501C3021 1501 2917 1501 2812.8 1501C2708.7 1501 2604.3 1501 2500.2 1501C2396 1501 2292 1501 2187.8 1501C2083.7 1501 1979.3 1501 1875.2 1501C1771 1501 1667 1501 1562.8 1501C1458.7 1501 1354.3 1501 1250.2 1501C1146 1501 1042 1501 937.8 1501C833.7 1501 729.3 1501 625.2 1501C521 1501 417 1501 312.8 1501C208.7 1501 104.3 1501 52.2 1501L0 1501Z" fill="#28537e"></path><path d="M0 1314L52.2 1324.3C104.3 1334.7 208.7 1355.3 312.8 1356C417 1356.7 521 1337.3 625.2 1334.7C729.3 1332 833.7 1346 937.8 1351.8C1042 1357.7 1146 1355.3 1250.2 1342.7C1354.3 1330 1458.7 1307 1562.8 1308.5C1667 1310 1771 1336 1875.2 1342.3C1979.3 1348.7 2083.7 1335.3 2187.8 1340.8C2292 1346.3 2396 1370.7 2500.2 1377.7C2604.3 1384.7 2708.7 1374.3 2812.8 1354.5C2917 1334.7 3021 1305.3 3125.2 1314.2C3229.3 1323 3333.7 1370 3437.8 1378.8C3542 1387.7 3646 1358.3 3750.2 1340.5C3854.3 1322.7 3958.7 1316.3 4062.8 1306.7C4167 1297 4271 1284 4375.2 1281.8C4479.3 1279.7 4583.7 1288.3 4687.8 1305.2C4792 1322 4896 1347 4948 1359.5L5000 1372L5000 1501L4948 1501C4896 1501 4792 1501 4687.8 1501C4583.7 1501 4479.3 1501 4375.2 1501C4271 1501 4167 1501 4062.8 1501C3958.7 1501 3854.3 1501 3750.2 1501C3646 1501 3542 1501 3437.8 1501C3333.7 1501 3229.3 1501 3125.2 1501C3021 1501 2917 1501 2812.8 1501C2708.7 1501 2604.3 1501 2500.2 1501C2396 1501 2292 1501 2187.8 1501C2083.7 1501 1979.3 1501 1875.2 1501C1771 1501 1667 1501 1562.8 1501C1458.7 1501 1354.3 1501 1250.2 1501C1146 1501 1042 1501 937.8 1501C833.7 1501 729.3 1501 625.2 1501C521 1501 417 1501 312.8 1501C208.7 1501 104.3 1501 52.2 1501L0 1501Z" fill="#2d456f"></path><path d="M0 1355L52.2 1351.2C104.3 1347.3 208.7 1339.7 312.8 1347.2C417 1354.7 521 1377.3 625.2 1384.3C729.3 1391.3 833.7 1382.7 937.8 1389.8C1042 1397 1146 1420 1250.2 1425.7C1354.3 1431.3 1458.7 1419.7 1562.8 1402.8C1667 1386 1771 1364 1875.2 1352.2C1979.3 1340.3 2083.7 1338.7 2187.8 1343.2C2292 1347.7 2396 1358.3 2500.2 1378C2604.3 1397.7 2708.7 1426.3 2812.8 1426.5C2917 1426.7 3021 1398.3 3125.2 1383.3C3229.3 1368.3 3333.7 1366.7 3437.8 1379C3542 1391.3 3646 1417.7 3750.2 1428C3854.3 1438.3 3958.7 1432.7 4062.8 1431.7C4167 1430.7 4271 1434.3 4375.2 1436.7C4479.3 1439 4583.7 1440 4687.8 1431.8C4792 1423.7 4896 1406.3 4948 1397.7L5000 1389L5000 1501L4948 1501C4896 1501 4792 1501 4687.8 1501C4583.7 1501 4479.3 1501 4375.2 1501C4271 1501 4167 1501 4062.8 1501C3958.7 1501 3854.3 1501 3750.2 1501C3646 1501 3542 1501 3437.8 1501C3333.7 1501 3229.3 1501 3125.2 1501C3021 1501 2917 1501 2812.8 1501C2708.7 1501 2604.3 1501 2500.2 1501C2396 1501 2292 1501 2187.8 1501C2083.7 1501 1979.3 1501 1875.2 1501C1771 1501 1667 1501 1562.8 1501C1458.7 1501 1354.3 1501 1250.2 1501C1146 1501 1042 1501 937.8 1501C833.7 1501 729.3 1501 625.2 1501C521 1501 417 1501 312.8 1501C208.7 1501 104.3 1501 52.2 1501L0 1501Z" fill="#2f375f"></path><path d="M0 1412L52.2 1419.5C104.3 1427 208.7 1442 312.8 1437.7C417 1433.3 521 1409.7 625.2 1413.5C729.3 1417.3 833.7 1448.7 937.8 1457.7C1042 1466.7 1146 1453.3 1250.2 1450.7C1354.3 1448 1458.7 1456 1562.8 1463.3C1667 1470.7 1771 1477.3 1875.2 1473C1979.3 1468.7 2083.7 1453.3 2187.8 1454.8C2292 1456.3 2396 1474.7 2500.2 1475.8C2604.3 1477 2708.7 1461 2812.8 1449C2917 1437 3021 1429 3125.2 1429.2C3229.3 1429.3 3333.7 1437.7 3437.8 1449.2C3542 1460.7 3646 1475.3 3750.2 1474.2C3854.3 1473 3958.7 1456 4062.8 1456.3C4167 1456.7 4271 1474.3 4375.2 1478C4479.3 1481.7 4583.7 1471.3 4687.8 1461.5C4792 1451.7 4896 1442.3 4948 1437.7L5000 1433L5000 1501L4948 1501C4896 1501 4792 1501 4687.8 1501C4583.7 1501 4479.3 1501 4375.2 1501C4271 1501 4167 1501 4062.8 1501C3958.7 1501 3854.3 1501 3750.2 1501C3646 1501 3542 1501 3437.8 1501C3333.7 1501 3229.3 1501 3125.2 1501C3021 1501 2917 1501 2812.8 1501C2708.7 1501 2604.3 1501 2500.2 1501C2396 1501 2292 1501 2187.8 1501C2083.7 1501 1979.3 1501 1875.2 1501C1771 1501 1667 1501 1562.8 1501C1458.7 1501 1354.3 1501 1250.2 1501C1146 1501 1042 1501 937.8 1501C833.7 1501 729.3 1501 625.2 1501C521 1501 417 1501 312.8 1501C208.7 1501 104.3 1501 52.2 1501L0 1501Z" fill="#2e294e"></path></svg>