<svg id="visual" viewBox="0 0 900 450" width="900" height="450" xmlns="http://www.w3.org/2000/svg" xmlns:xlink="http://www.w3.org/1999/xlink" version="1.1"><rect x="0" y="0" width="900" height="450" fill="#F7FFF7"></rect><path d="M0 232L9.3 245.7C18.7 259.3 37.3 286.7 56.2 287.5C75 288.3 94 262.7 112.8 250.8C131.7 239 150.3 241 169 241C187.7 241 206.3 239 225 243.7C243.7 248.3 262.3 259.7 281.2 260C300 260.3 319 249.7 337.8 243.7C356.7 237.7 375.3 236.3 394 245.8C412.7 255.3 431.3 275.7 450 275C468.7 274.3 487.3 252.7 506.2 249.2C525 245.7 544 260.3 562.8 269.5C581.7 278.7 600.3 282.3 619 279.5C637.7 276.7 656.3 267.3 675 262.8C693.7 258.3 712.3 258.7 731.2 260.3C750 262 769 265 787.8 262.8C806.7 260.7 825.3 253.3 844 260.7C862.7 268 881.3 290 890.7 301L900 312L900 451L890.7 451C881.3 451 862.7 451 844 451C825.3 451 806.7 451 787.8 451C769 451 750 451 731.2 451C712.3 451 693.7 451 675 451C656.3 451 637.7 451 619 451C600.3 451 581.7 451 562.8 451C544 451 525 451 506.2 451C487.3 451 468.7 451 450 451C431.3 451 412.7 451 394 451C375.3 451 356.7 451 337.8 451C319 451 300 451 281.2 451C262.3 451 243.7 451 225 451C206.3 451 187.7 451 169 451C150.3 451 131.7 451 112.8 451C94 451 75 451 56.2 451C37.3 451 18.7 451 9.3 451L0 451Z" fill="#4ecdc4"></path><path d="M0 294L9.3 286.3C18.7 278.7 37.3 263.3 56.2 264.3C75 265.3 94 282.7 112.8 286.7C131.7 290.7 150.3 281.3 169 278.7C187.7 276 206.3 280 225 286.2C243.7 292.3 262.3 300.7 281.2 296C300 291.3 319 273.7 337.8 265.3C356.7 257 375.3 258 394 269.5C412.7 281 431.3 303 450 305.5C468.7 308 487.3 291 506.2 285.7C525 280.3 544 286.7 562.8 295.3C581.7 304 600.3 315 619 318.5C637.7 322 656.3 318 675 316C693.7 314 712.3 314 731.2 310.8C750 307.7 769 301.3 787.8 301.8C806.7 302.3 825.3 309.7 844 314.7C862.7 319.7 881.3 322.3 890.7 323.7L900 325L900 451L890.7 451C881.3 451 862.7 451 844 451C825.3 451 806.7 451 787.8 451C769 451 750 451 731.2 451C712.3 451 693.7 451 675 451C656.3 451 637.7 451 619 451C600.3 451 581.7 451 562.8 451C544 451 525 451 506.2 451C487.3 451 468.7 451 450 451C431.3 451 412.7 451 394 451C375.3 451 356.7 451 337.8 451C319 451 300 451 281.2 451C262.3 451 243.7 451 225 451C206.3 451 187.7 451 169 451C150.3 451 131.7 451 112.8 451C94 451 75 451 56.2 451C37.3 451 18.7 451 9.3 451L0 451Z" fill="#36bec1"></path><path d="M0 289L9.3 287C18.7 285 37.3 281 56.2 286.2C75 291.3 94 305.7 112.8 308.5C131.7 311.3 150.3 302.7 169 305.3C187.7 308 206.3 322 225 318.5C243.7 315 262.3 294 281.2 294C300 294 319 315 337.8 326C356.7 337 375.3 338 394 337C412.7 336 431.3 333 450 328C468.7 323 487.3 316 506.2 316C525 316 544 323 562.8 314.8C581.7 306.7 600.3 283.3 619 280.3C637.7 277.3 656.3 294.7 675 295C693.7 295.3 712.3 278.7 731.2 277.2C750 275.7 769 289.3 787.8 294.5C806.7 299.7 825.3 296.3 844 292.3C862.7 288.3 881.3 283.7 890.7 281.3L900 279L900 451L890.7 451C881.3 451 862.7 451 844 451C825.3 451 806.7 451 787.8 451C769 451 750 451 731.2 451C712.3 451 693.7 451 675 451C656.3 451 637.7 451 619 451C600.3 451 581.7 451 562.8 451C544 451 525 451 506.2 451C487.3 451 468.7 451 450 451C431.3 451 412.7 451 394 451C375.3 451 356.7 451 337.8 451C319 451 300 451 281.2 451C262.3 451 243.7 451 225 451C206.3 451 187.7 451 169 451C150.3 451 131.7 451 112.8 451C94 451 75 451 56.2 451C37.3 451 18.7 451 9.3 451L0 451Z" fill="#1eafbc"></path><path d="M0 345L9.3 343.7C18.7 342.3 37.3 339.7 56.2 336.7C75 333.7 94 330.3 112.8 329.7C131.7 329 150.3 331 169 329.3C187.7 327.7 206.3 322.3 225 313.5C243.7 304.7 262.3 292.3 281.2 288.7C300 285 319 290 337.8 298.5C356.7 307 375.3 319 394 319.8C412.7 320.7 431.3 310.3 450 310.7C468.7 311 487.3 322 506.2 318.5C525 315 544 297 562.8 289.2C581.7 281.3 600.3 283.7 619 289.7C637.7 295.7 656.3 305.3 675 316C693.7 326.7 712.3 338.3 731.2 332.2C750 326 769 302 787.8 301C806.7 300 825.3 322 844 331C862.7 340 881.3 336 890.7 334L900 332L900 451L890.7 451C881.3 451 862.7 451 844 451C825.3 451 806.7 451 787.8 451C769 451 750 451 731.2 451C712.3 451 693.7 451 675 451C656.3 451 637.7 451 619 451C600.3 451 581.7 451 562.8 451C544 451 525 451 506.2 451C487.3 451 468.7 451 450 451C431.3 451 412.7 451 394 451C375.3 451 356.7 451 337.8 451C319 451 300 451 281.2 451C262.3 451 243.7 451 225 451C206.3 451 187.7 451 169 451C150.3 451 131.7 451 112.8 451C94 451 75 451 56.2 451C37.3 451 18.7 451 9.3 451L0 451Z" fill="#059fb6"></path><path d="M0 300L9.3 300.3C18.7 300.7 37.3 301.3 56.2 305.2C75 309 94 316 112.8 314.7C131.7 313.3 150.3 303.7 169 300.3C187.7 297 206.3 300 225 306.8C243.7 313.7 262.3 324.3 281.2 323.3C300 322.3 319 309.7 337.8 310.2C356.7 310.7 375.3 324.3 394 325.5C412.7 326.7 431.3 315.3 450 314C468.7 312.7 487.3 321.3 506.2 324.7C525 328 544 326 562.8 329.7C581.7 333.3 600.3 342.7 619 345C637.7 347.3 656.3 342.7 675 334.8C693.7 327 712.3 316 731.2 314.7C750 313.3 769 321.7 787.8 328.2C806.7 334.7 825.3 339.3 844 333.5C862.7 327.7 881.3 311.3 890.7 303.2L900 295L900 451L890.7 451C881.3 451 862.7 451 844 451C825.3 451 806.7 451 787.8 451C769 451 750 451 731.2 451C712.3 451 693.7 451 675 451C656.3 451 637.7 451 619 451C600.3 451 581.7 451 562.8 451C544 451 525 451 506.2 451C487.3 451 468.7 451 450 451C431.3 451 412.7 451 394 451C375.3 451 356.7 451 337.8 451C319 451 300 451 281.2 451C262.3 451 243.7 451 225 451C206.3 451 187.7 451 169 451C150.3 451 131.7 451 112.8 451C94 451 75 451 56.2 451C37.3 451 18.7 451 9.3 451L0 451Z" fill="#0090ae"></path><path d="M0 315L9.3 317.7C18.7 320.3 37.3 325.7 56.2 326.2C75 326.7 94 322.3 112.8 327.5C131.7 332.7 150.3 347.3 169 346.3C187.7 345.3 206.3 328.7 225 323.7C243.7 318.7 262.3 325.3 281.2 328.5C300 331.7 319 331.3 337.8 338.2C356.7 345 375.3 359 394 357.5C412.7 356 431.3 339 450 330C468.7 321 487.3 320 506.2 319.8C525 319.7 544 320.3 562.8 328.3C581.7 336.3 600.3 351.7 619 358.8C637.7 366 656.3 365 675 364.2C693.7 363.3 712.3 362.7 731.2 358.7C750 354.7 769 347.3 787.8 338.8C806.7 330.3 825.3 320.7 844 322.5C862.7 324.3 881.3 337.7 890.7 344.3L900 351L900 451L890.7 451C881.3 451 862.7 451 844 451C825.3 451 806.7 451 787.8 451C769 451 750 451 731.2 451C712.3 451 693.7 451 675 451C656.3 451 637.7 451 619 451C600.3 451 581.7 451 562.8 451C544 451 525 451 506.2 451C487.3 451 468.7 451 450 451C431.3 451 412.7 451 394 451C375.3 451 356.7 451 337.8 451C319 451 300 451 281.2 451C262.3 451 243.7 451 225 451C206.3 451 187.7 451 169 451C150.3 451 131.7 451 112.8 451C94 451 75 451 56.2 451C37.3 451 18.7 451 9.3 451L0 451Z" fill="#0481a4"></path><path d="M0 381L9.3 377.3C18.7 373.7 37.3 366.3 56.2 360.8C75 355.3 94 351.7 112.8 348.8C131.7 346 150.3 344 169 344.5C187.7 345 206.3 348 225 352.3C243.7 356.7 262.3 362.3 281.2 358.8C300 355.3 319 342.7 337.8 345.7C356.7 348.7 375.3 367.3 394 372.3C412.7 377.3 431.3 368.7 450 359.3C468.7 350 487.3 340 506.2 334.8C525 329.7 544 329.3 562.8 333.3C581.7 337.3 600.3 345.7 619 354.5C637.7 363.3 656.3 372.7 675 370.5C693.7 368.3 712.3 354.7 731.2 349.3C750 344 769 347 787.8 354C806.7 361 825.3 372 844 376C862.7 380 881.3 377 890.7 375.5L900 374L900 451L890.7 451C881.3 451 862.7 451 844 451C825.3 451 806.7 451 787.8 451C769 451 750 451 731.2 451C712.3 451 693.7 451 675 451C656.3 451 637.7 451 619 451C600.3 451 581.7 451 562.8 451C544 451 525 451 506.2 451C487.3 451 468.7 451 450 451C431.3 451 412.7 451 394 451C375.3 451 356.7 451 337.8 451C319 451 300 451 281.2 451C262.3 451 243.7 451 225 451C206.3 451 187.7 451 169 451C150.3 451 131.7 451 112.8 451C94 451 75 451 56.2 451C37.3 451 18.7 451 9.3 451L0 451Z" fill="#157199"></path><path d="M0 383L9.3 379.7C18.7 376.3 37.3 369.7 56.2 369.3C75 369 94 375 112.8 374.2C131.7 373.3 150.3 365.7 169 364.3C187.7 363 206.3 368 225 373.3C243.7 378.7 262.3 384.3 281.2 380.3C300 376.3 319 362.7 337.8 360.2C356.7 357.7 375.3 366.3 394 369.2C412.7 372 431.3 369 450 371.8C468.7 374.7 487.3 383.3 506.2 382.8C525 382.3 544 372.7 562.8 367C581.7 361.3 600.3 359.7 619 359.2C637.7 358.7 656.3 359.3 675 358.2C693.7 357 712.3 354 731.2 357.3C750 360.7 769 370.3 787.8 375.8C806.7 381.3 825.3 382.7 844 377.5C862.7 372.3 881.3 360.7 890.7 354.8L900 349L900 451L890.7 451C881.3 451 862.7 451 844 451C825.3 451 806.7 451 787.8 451C769 451 750 451 731.2 451C712.3 451 693.7 451 675 451C656.3 451 637.7 451 619 451C600.3 451 581.7 451 562.8 451C544 451 525 451 506.2 451C487.3 451 468.7 451 450 451C431.3 451 412.7 451 394 451C375.3 451 356.7 451 337.8 451C319 451 300 451 281.2 451C262.3 451 243.7 451 225 451C206.3 451 187.7 451 169 451C150.3 451 131.7 451 112.8 451C94 451 75 451 56.2 451C37.3 451 18.7 451 9.3 451L0 451Z" fill="#20628c"></path><path d="M0 404L9.3 397.7C18.7 391.3 37.3 378.7 56.2 373.2C75 367.7 94 369.3 112.8 376.5C131.7 383.7 150.3 396.3 169 401C187.7 405.7 206.3 402.3 225 399C243.7 395.7 262.3 392.3 281.2 393.5C300 394.7 319 400.3 337.8 399.5C356.7 398.7 375.3 391.3 394 387.5C412.7 383.7 431.3 383.3 450 385.3C468.7 387.3 487.3 391.7 506.2 394.5C525 397.3 544 398.7 562.8 401.2C581.7 403.7 600.3 407.3 619 401.7C637.7 396 656.3 381 675 376.3C693.7 371.7 712.3 377.3 731.2 380.7C750 384 769 385 787.8 385.3C806.7 385.7 825.3 385.3 844 383.2C862.7 381 881.3 377 890.7 375L900 373L900 451L890.7 451C881.3 451 862.7 451 844 451C825.3 451 806.7 451 787.8 451C769 451 750 451 731.2 451C712.3 451 693.7 451 675 451C656.3 451 637.7 451 619 451C600.3 451 581.7 451 562.8 451C544 451 525 451 506.2 451C487.3 451 468.7 451 450 451C431.3 451 412.7 451 394 451C375.3 451 356.7 451 337.8 451C319 451 300 451 281.2 451C262.3 451 243.7 451 225 451C206.3 451 187.7 451 169 451C150.3 451 131.7 451 112.8 451C94 451 75 451 56.2 451C37.3 451 18.7 451 9.3 451L0 451Z" fill="#28537e"></path><path d="M0 394L9.3 397C18.7 400 37.3 406 56.2 406.2C75 406.3 94 400.7 112.8 399.8C131.7 399 150.3 403 169 404.7C187.7 406.3 206.3 405.7 225 402C243.7 398.3 262.3 391.7 281.2 392.2C300 392.7 319 400.3 337.8 402.2C356.7 404 375.3 400 394 401.7C412.7 403.3 431.3 410.7 450 412.7C468.7 414.7 487.3 411.3 506.2 405.3C525 399.3 544 390.7 562.8 393.5C581.7 396.3 600.3 410.7 619 413.3C637.7 416 656.3 407 675 401.5C693.7 396 712.3 394 731.2 391.2C750 388.3 769 384.7 787.8 384C806.7 383.3 825.3 385.7 844 390.7C862.7 395.7 881.3 403.3 890.7 407.2L900 411L900 451L890.7 451C881.3 451 862.7 451 844 451C825.3 451 806.7 451 787.8 451C769 451 750 451 731.2 451C712.3 451 693.7 451 675 451C656.3 451 637.7 451 619 451C600.3 451 581.7 451 562.8 451C544 451 525 451 506.2 451C487.3 451 468.7 451 450 451C431.3 451 412.7 451 394 451C375.3 451 356.7 451 337.8 451C319 451 300 451 281.2 451C262.3 451 243.7 451 225 451C206.3 451 187.7 451 169 451C150.3 451 131.7 451 112.8 451C94 451 75 451 56.2 451C37.3 451 18.7 451 9.3 451L0 451Z" fill="#2d456f"></path><path d="M0 406L9.3 404.8C18.7 403.7 37.3 401.3 56.2 403.5C75 405.7 94 412.3 112.8 414.5C131.7 416.7 150.3 414.3 169 416.5C187.7 418.7 206.3 425.3 225 427C243.7 428.7 262.3 425.3 281.2 420.3C300 415.3 319 408.7 337.8 405C356.7 401.3 375.3 400.7 394 402C412.7 403.3 431.3 406.7 450 412.7C468.7 418.7 487.3 427.3 506.2 427.3C525 427.3 544 418.7 562.8 414.2C581.7 409.7 600.3 409.3 619 413C637.7 416.7 656.3 424.3 675 427.3C693.7 430.3 712.3 428.7 731.2 428.5C750 428.3 769 429.7 787.8 430.5C806.7 431.3 825.3 431.7 844 429.2C862.7 426.7 881.3 421.3 890.7 418.7L900 416L900 451L890.7 451C881.3 451 862.7 451 844 451C825.3 451 806.7 451 787.8 451C769 451 750 451 731.2 451C712.3 451 693.7 451 675 451C656.3 451 637.7 451 619 451C600.3 451 581.7 451 562.8 451C544 451 525 451 506.2 451C487.3 451 468.7 451 450 451C431.3 451 412.7 451 394 451C375.3 451 356.7 451 337.8 451C319 451 300 451 281.2 451C262.3 451 243.7 451 225 451C206.3 451 187.7 451 169 451C150.3 451 131.7 451 112.8 451C94 451 75 451 56.2 451C37.3 451 18.7 451 9.3 451L0 451Z" fill="#2f375f"></path><path d="M0 423L9.3 425.2C18.7 427.3 37.3 431.7 56.2 430.3C75 429 94 422 112.8 423.2C131.7 424.3 150.3 433.7 169 436.3C187.7 439 206.3 435 225 434.2C243.7 433.3 262.3 435.7 281.2 437.8C300 440 319 442 337.8 440.8C356.7 439.7 375.3 435.3 394 435.8C412.7 436.3 431.3 441.7 450 442C468.7 442.3 487.3 437.7 506.2 434.2C525 430.7 544 428.3 562.8 428.3C581.7 428.3 600.3 430.7 619 434C637.7 437.3 656.3 441.7 675 441.3C693.7 441 712.3 436 731.2 436.2C750 436.3 769 441.7 787.8 442.8C806.7 444 825.3 441 844 438C862.7 435 881.3 432 890.7 430.5L900 429L900 451L890.7 451C881.3 451 862.7 451 844 451C825.3 451 806.7 451 787.8 451C769 451 750 451 731.2 451C712.3 451 693.7 451 675 451C656.3 451 637.7 451 619 451C600.3 451 581.7 451 562.8 451C544 451 525 451 506.2 451C487.3 451 468.7 451 450 451C431.3 451 412.7 451 394 451C375.3 451 356.7 451 337.8 451C319 451 300 451 281.2 451C262.3 451 243.7 451 225 451C206.3 451 187.7 451 169 451C150.3 451 131.7 451 112.8 451C94 451 75 451 56.2 451C37.3 451 18.7 451 9.3 451L0 451Z" fill="#2e294e"></path></svg>