<svg xmlns="http://www.w3.org/2000/svg" version="1.1" xmlns:xlink="http://www.w3.org/1999/xlink" xmlns:svgjs="http://svgjs.com/svgjs" width="2048" height="550" preserveAspectRatio="none" viewBox="0 0 2048 550"><g mask="url(&quot;#SvgjsMask2159&quot;)" fill="none"><rect width="2048" height="550" x="0" y="0" fill="url(#SvgjsLinearGradient2160)"></rect><path d="M 0,20 C 136.6,112.6 409.8,433.2 683,483 C 956.2,532.8 1093,271 1366,269 C 1639,267 1911.6,432.2 2048,473L2048 550L0 550z" fill="rgba(36, 106, 115, 0.86)"></path><path d="M 0,307 C 58.6,285.2 175.8,180.4 293,198 C 410.2,215.6 468.8,395.8 586,395 C 703.2,394.2 761.8,187 879,194 C 996.2,201 1054.8,427.8 1172,430 C 1289.2,432.2 1347.8,211.4 1465,205 C 1582.2,198.6 1641.4,429.6 1758,398 C 1874.6,366.4 1990,117.2 2048,47L2048 550L0 550z" fill="rgba(46, 41, 78, 0.71)"></path><path d="M 0,70 C 58.6,144.4 175.8,407.6 293,442 C 410.2,476.4 468.8,256 586,242 C 703.2,228 761.8,371.4 879,372 C 996.2,372.6 1054.8,236.2 1172,245 C 1289.2,253.8 1347.8,419.2 1465,416 C 1582.2,412.8 1641.4,240.8 1758,229 C 1874.6,217.2 1990,331.4 2048,357L2048 550L0 550z" fill="rgba(78, 205, 196, 0.85)"></path></g><defs><mask id="SvgjsMask2159"><rect width="2048" height="550" fill="#ffffff"></rect></mask><linearGradient x1="81.71%" y1="-68.09%" x2="18.29%" y2="168.09%" gradientUnits="userSpaceOnUse" id="SvgjsLinearGradient2160"><stop stop-color="rgba(247, 255, 247, 1)" offset="0.47"></stop><stop stop-color="rgba(215, 205, 204, 1)" offset="1"></stop></linearGradient></defs></svg>