<svg xmlns="http://www.w3.org/2000/svg" version="1.1" xmlns:xlink="http://www.w3.org/1999/xlink" xmlns:svgjs="http://svgjs.com/svgjs" width="2048" height="550" preserveAspectRatio="none" viewBox="0 0 2048 550"><g mask="url(&quot;#SvgjsMask2077&quot;)" fill="none"><rect width="2048" height="550" x="0" y="0" fill="url(#SvgjsLinearGradient2078)"></rect><path d="M 0,327 C 58.6,287.2 175.8,93.6 293,128 C 410.2,162.4 468.8,492.2 586,499 C 703.2,505.8 761.8,168.4 879,162 C 996.2,155.6 1054.8,463.8 1172,467 C 1289.2,470.2 1347.8,177.8 1465,178 C 1582.2,178.2 1641.4,452.2 1758,468 C 1874.6,483.8 1990,299.2 2048,257L2048 550L0 550z" fill="rgba(46, 41, 78, 0.89)"></path><path d="M 0,209 C 41,223.2 123,269.2 205,280 C 287,290.8 328,247.8 410,263 C 492,278.2 533,357.2 615,356 C 697,354.8 738,253.6 820,257 C 902,260.4 943,415.6 1025,373 C 1107,330.4 1148,36 1230,44 C 1312,52 1353,391.4 1435,413 C 1517,434.6 1558,169.4 1640,152 C 1722,134.6 1763.4,337.8 1845,326 C 1926.6,314.2 2007.4,139.6 2048,93L2048 550L0 550z" fill="rgba(78, 205, 196, 0.94)"></path><path d="M 0,272 C 82,284 246,346.4 410,332 C 574,317.6 656,170.6 820,200 C 984,229.4 1066,466.6 1230,479 C 1394,491.4 1476.4,281 1640,262 C 1803.6,243 1966.4,359.6 2048,384L2048 550L0 550z" fill="rgba(36, 106, 115, 0.65)"></path></g><defs><mask id="SvgjsMask2077"><rect width="2048" height="550" fill="#ffffff"></rect></mask><linearGradient x1="81.71%" y1="-68.09%" x2="18.29%" y2="168.09%" gradientUnits="userSpaceOnUse" id="SvgjsLinearGradient2078"><stop stop-color="rgba(247, 255, 247, 1)" offset="0.47"></stop><stop stop-color="rgba(215, 205, 204, 1)" offset="1"></stop></linearGradient></defs></svg>