<svg id="visual" viewBox="0 0 2048 1152" width="2048" height="1152" xmlns="http://www.w3.org/2000/svg" xmlns:xlink="http://www.w3.org/1999/xlink" version="1.1"><rect x="0" y="0" width="2048" height="1152" fill="#F7FFF7"></rect><path d="M0 597L21.3 631.8C42.7 666.7 85.3 736.3 128 738.2C170.7 740 213.3 674 256 643.5C298.7 613 341.3 618 384 618.2C426.7 618.3 469.3 613.7 512 625.7C554.7 637.7 597.3 666.3 640 667.2C682.7 668 725.3 641 768 625.7C810.7 610.3 853.3 606.7 896 630.7C938.7 654.7 981.3 706.3 1024 704.5C1066.7 702.7 1109.3 647.3 1152 638.5C1194.7 629.7 1237.3 667.3 1280 690.8C1322.7 714.3 1365.3 723.7 1408 716.7C1450.7 709.7 1493.3 686.3 1536 675.2C1578.7 664 1621.3 665 1664 669C1706.7 673 1749.3 680 1792 674.3C1834.7 668.7 1877.3 650.3 1920 669.3C1962.7 688.3 2005.3 744.7 2026.7 772.8L2048 801L2048 1153L2026.7 1153C2005.3 1153 1962.7 1153 1920 1153C1877.3 1153 1834.7 1153 1792 1153C1749.3 1153 1706.7 1153 1664 1153C1621.3 1153 1578.7 1153 1536 1153C1493.3 1153 1450.7 1153 1408 1153C1365.3 1153 1322.7 1153 1280 1153C1237.3 1153 1194.7 1153 1152 1153C1109.3 1153 1066.7 1153 1024 1153C981.3 1153 938.7 1153 896 1153C853.3 1153 810.7 1153 768 1153C725.3 1153 682.7 1153 640 1153C597.3 1153 554.7 1153 512 1153C469.3 1153 426.7 1153 384 1153C341.3 1153 298.7 1153 256 1153C213.3 1153 170.7 1153 128 1153C85.3 1153 42.7 1153 21.3 1153L0 1153Z" fill="#4ecdc4"></path><path d="M0 754L21.3 734.3C42.7 714.7 85.3 675.3 128 677.7C170.7 680 213.3 724 256 734.3C298.7 744.7 341.3 721.3 384 714.5C426.7 707.7 469.3 717.3 512 733.3C554.7 749.3 597.3 771.7 640 760C682.7 748.3 725.3 702.7 768 681.3C810.7 660 853.3 663 896 692.5C938.7 722 981.3 778 1024 784.3C1066.7 790.7 1109.3 747.3 1152 733.5C1194.7 719.7 1237.3 735.3 1280 757.5C1322.7 779.7 1365.3 808.3 1408 817.5C1450.7 826.7 1493.3 816.3 1536 811C1578.7 805.7 1621.3 805.3 1664 797.2C1706.7 789 1749.3 773 1792 774.5C1834.7 776 1877.3 795 1920 808C1962.7 821 2005.3 828 2026.7 831.5L2048 835L2048 1153L2026.7 1153C2005.3 1153 1962.7 1153 1920 1153C1877.3 1153 1834.7 1153 1792 1153C1749.3 1153 1706.7 1153 1664 1153C1621.3 1153 1578.7 1153 1536 1153C1493.3 1153 1450.7 1153 1408 1153C1365.3 1153 1322.7 1153 1280 1153C1237.3 1153 1194.7 1153 1152 1153C1109.3 1153 1066.7 1153 1024 1153C981.3 1153 938.7 1153 896 1153C853.3 1153 810.7 1153 768 1153C725.3 1153 682.7 1153 640 1153C597.3 1153 554.7 1153 512 1153C469.3 1153 426.7 1153 384 1153C341.3 1153 298.7 1153 256 1153C213.3 1153 170.7 1153 128 1153C85.3 1153 42.7 1153 21.3 1153L0 1153Z" fill="#36bec1"></path><path d="M0 741L21.3 735.7C42.7 730.3 85.3 719.7 128 733C170.7 746.3 213.3 783.7 256 791.2C298.7 798.7 341.3 776.3 384 783.3C426.7 790.3 469.3 826.7 512 817.7C554.7 808.7 597.3 754.3 640 754C682.7 753.7 725.3 807.3 768 835.5C810.7 863.7 853.3 866.3 896 864C938.7 861.7 981.3 854.3 1024 841.8C1066.7 829.3 1109.3 811.7 1152 811.3C1194.7 811 1237.3 828 1280 806.8C1322.7 785.7 1365.3 726.3 1408 718.8C1450.7 711.3 1493.3 755.7 1536 756.3C1578.7 757 1621.3 714 1664 710.2C1706.7 706.3 1749.3 741.7 1792 755.2C1834.7 768.7 1877.3 760.3 1920 750C1962.7 739.7 2005.3 727.3 2026.7 721.2L2048 715L2048 1153L2026.7 1153C2005.3 1153 1962.7 1153 1920 1153C1877.3 1153 1834.7 1153 1792 1153C1749.3 1153 1706.7 1153 1664 1153C1621.3 1153 1578.7 1153 1536 1153C1493.3 1153 1450.7 1153 1408 1153C1365.3 1153 1322.7 1153 1280 1153C1237.3 1153 1194.7 1153 1152 1153C1109.3 1153 1066.7 1153 1024 1153C981.3 1153 938.7 1153 896 1153C853.3 1153 810.7 1153 768 1153C725.3 1153 682.7 1153 640 1153C597.3 1153 554.7 1153 512 1153C469.3 1153 426.7 1153 384 1153C341.3 1153 298.7 1153 256 1153C213.3 1153 170.7 1153 128 1153C85.3 1153 42.7 1153 21.3 1153L0 1153Z" fill="#1eafbc"></path><path d="M0 884L21.3 880.7C42.7 877.3 85.3 870.7 128 863.3C170.7 856 213.3 848 256 846.5C298.7 845 341.3 850 384 845.7C426.7 841.3 469.3 827.7 512 804.7C554.7 781.7 597.3 749.3 640 739.5C682.7 729.7 725.3 742.3 768 764.3C810.7 786.3 853.3 817.7 896 820.3C938.7 823 981.3 797 1024 797.8C1066.7 798.7 1109.3 826.3 1152 817C1194.7 807.7 1237.3 761.3 1280 741.2C1322.7 721 1365.3 727 1408 742.3C1450.7 757.7 1493.3 782.3 1536 809.8C1578.7 837.3 1621.3 867.7 1664 852.2C1706.7 836.7 1749.3 775.3 1792 772.5C1834.7 769.7 1877.3 825.3 1920 848C1962.7 870.7 2005.3 860.3 2026.7 855.2L2048 850L2048 1153L2026.7 1153C2005.3 1153 1962.7 1153 1920 1153C1877.3 1153 1834.7 1153 1792 1153C1749.3 1153 1706.7 1153 1664 1153C1621.3 1153 1578.7 1153 1536 1153C1493.3 1153 1450.7 1153 1408 1153C1365.3 1153 1322.7 1153 1280 1153C1237.3 1153 1194.7 1153 1152 1153C1109.3 1153 1066.7 1153 1024 1153C981.3 1153 938.7 1153 896 1153C853.3 1153 810.7 1153 768 1153C725.3 1153 682.7 1153 640 1153C597.3 1153 554.7 1153 512 1153C469.3 1153 426.7 1153 384 1153C341.3 1153 298.7 1153 256 1153C213.3 1153 170.7 1153 128 1153C85.3 1153 42.7 1153 21.3 1153L0 1153Z" fill="#059fb6"></path><path d="M0 769L21.3 770.2C42.7 771.3 85.3 773.7 128 783.3C170.7 793 213.3 810 256 806.2C298.7 802.3 341.3 777.7 384 769.5C426.7 761.3 469.3 769.7 512 787.3C554.7 805 597.3 832 640 829.5C682.7 827 725.3 795 768 796.3C810.7 797.7 853.3 832.3 896 835.2C938.7 838 981.3 809 1024 805.5C1066.7 802 1109.3 824 1152 832.3C1194.7 840.7 1237.3 835.3 1280 844.8C1322.7 854.3 1365.3 878.7 1408 884.7C1450.7 890.7 1493.3 878.3 1536 858.3C1578.7 838.3 1621.3 810.7 1664 807.5C1706.7 804.3 1749.3 825.7 1792 842C1834.7 858.3 1877.3 869.7 1920 854.7C1962.7 839.7 2005.3 798.3 2026.7 777.7L2048 757L2048 1153L2026.7 1153C2005.3 1153 1962.7 1153 1920 1153C1877.3 1153 1834.7 1153 1792 1153C1749.3 1153 1706.7 1153 1664 1153C1621.3 1153 1578.7 1153 1536 1153C1493.3 1153 1450.7 1153 1408 1153C1365.3 1153 1322.7 1153 1280 1153C1237.3 1153 1194.7 1153 1152 1153C1109.3 1153 1066.7 1153 1024 1153C981.3 1153 938.7 1153 896 1153C853.3 1153 810.7 1153 768 1153C725.3 1153 682.7 1153 640 1153C597.3 1153 554.7 1153 512 1153C469.3 1153 426.7 1153 384 1153C341.3 1153 298.7 1153 256 1153C213.3 1153 170.7 1153 128 1153C85.3 1153 42.7 1153 21.3 1153L0 1153Z" fill="#0090ae"></path><path d="M0 807L21.3 813.8C42.7 820.7 85.3 834.3 128 835.7C170.7 837 213.3 826 256 839.5C298.7 853 341.3 891 384 888.5C426.7 886 469.3 843 512 830.3C554.7 817.7 597.3 835.3 640 843.7C682.7 852 725.3 851 768 868.2C810.7 885.3 853.3 920.7 896 916.5C938.7 912.3 981.3 868.7 1024 845.7C1066.7 822.7 1109.3 820.3 1152 820.2C1194.7 820 1237.3 822 1280 842.3C1322.7 862.7 1365.3 901.3 1408 919.3C1450.7 937.3 1493.3 934.7 1536 932.7C1578.7 930.7 1621.3 929.3 1664 919.3C1706.7 909.3 1749.3 890.7 1792 869C1834.7 847.3 1877.3 822.7 1920 827.3C1962.7 832 2005.3 866 2026.7 883L2048 900L2048 1153L2026.7 1153C2005.3 1153 1962.7 1153 1920 1153C1877.3 1153 1834.7 1153 1792 1153C1749.3 1153 1706.7 1153 1664 1153C1621.3 1153 1578.7 1153 1536 1153C1493.3 1153 1450.7 1153 1408 1153C1365.3 1153 1322.7 1153 1280 1153C1237.3 1153 1194.7 1153 1152 1153C1109.3 1153 1066.7 1153 1024 1153C981.3 1153 938.7 1153 896 1153C853.3 1153 810.7 1153 768 1153C725.3 1153 682.7 1153 640 1153C597.3 1153 554.7 1153 512 1153C469.3 1153 426.7 1153 384 1153C341.3 1153 298.7 1153 256 1153C213.3 1153 170.7 1153 128 1153C85.3 1153 42.7 1153 21.3 1153L0 1153Z" fill="#0481a4"></path><path d="M0 976L21.3 967C42.7 958 85.3 940 128 925.8C170.7 911.7 213.3 901.3 256 893.7C298.7 886 341.3 881 384 882.3C426.7 883.7 469.3 891.3 512 902.5C554.7 913.7 597.3 928.3 640 919.7C682.7 911 725.3 879 768 886.7C810.7 894.3 853.3 941.7 896 954.2C938.7 966.7 981.3 944.3 1024 920.7C1066.7 897 1109.3 872 1152 858.8C1194.7 845.7 1237.3 844.3 1280 854.5C1322.7 864.7 1365.3 886.3 1408 909.2C1450.7 932 1493.3 956 1536 950.7C1578.7 945.3 1621.3 910.7 1664 896.8C1706.7 883 1749.3 890 1792 907.5C1834.7 925 1877.3 953 1920 963.5C1962.7 974 2005.3 967 2026.7 963.5L2048 960L2048 1153L2026.7 1153C2005.3 1153 1962.7 1153 1920 1153C1877.3 1153 1834.7 1153 1792 1153C1749.3 1153 1706.7 1153 1664 1153C1621.3 1153 1578.7 1153 1536 1153C1493.3 1153 1450.7 1153 1408 1153C1365.3 1153 1322.7 1153 1280 1153C1237.3 1153 1194.7 1153 1152 1153C1109.3 1153 1066.7 1153 1024 1153C981.3 1153 938.7 1153 896 1153C853.3 1153 810.7 1153 768 1153C725.3 1153 682.7 1153 640 1153C597.3 1153 554.7 1153 512 1153C469.3 1153 426.7 1153 384 1153C341.3 1153 298.7 1153 256 1153C213.3 1153 170.7 1153 128 1153C85.3 1153 42.7 1153 21.3 1153L0 1153Z" fill="#157199"></path><path d="M0 981L21.3 972.8C42.7 964.7 85.3 948.3 128 947.7C170.7 947 213.3 962 256 959.8C298.7 957.7 341.3 938.3 384 934.8C426.7 931.3 469.3 943.7 512 957C554.7 970.3 597.3 984.7 640 974.7C682.7 964.7 725.3 930.3 768 924.3C810.7 918.3 853.3 940.7 896 947.7C938.7 954.7 981.3 946.3 1024 953.3C1066.7 960.3 1109.3 982.7 1152 981.7C1194.7 980.7 1237.3 956.3 1280 941.8C1322.7 927.3 1365.3 922.7 1408 921.3C1450.7 920 1493.3 922 1536 919.2C1578.7 916.3 1621.3 908.7 1664 917.2C1706.7 925.7 1749.3 950.3 1792 964.5C1834.7 978.7 1877.3 982.3 1920 968.8C1962.7 955.3 2005.3 924.7 2026.7 909.3L2048 894L2048 1153L2026.7 1153C2005.3 1153 1962.7 1153 1920 1153C1877.3 1153 1834.7 1153 1792 1153C1749.3 1153 1706.7 1153 1664 1153C1621.3 1153 1578.7 1153 1536 1153C1493.3 1153 1450.7 1153 1408 1153C1365.3 1153 1322.7 1153 1280 1153C1237.3 1153 1194.7 1153 1152 1153C1109.3 1153 1066.7 1153 1024 1153C981.3 1153 938.7 1153 896 1153C853.3 1153 810.7 1153 768 1153C725.3 1153 682.7 1153 640 1153C597.3 1153 554.7 1153 512 1153C469.3 1153 426.7 1153 384 1153C341.3 1153 298.7 1153 256 1153C213.3 1153 170.7 1153 128 1153C85.3 1153 42.7 1153 21.3 1153L0 1153Z" fill="#20628c"></path><path d="M0 1036L21.3 1019.7C42.7 1003.3 85.3 970.7 128 956.7C170.7 942.7 213.3 947.3 256 965.7C298.7 984 341.3 1016 384 1028C426.7 1040 469.3 1032 512 1023.7C554.7 1015.3 597.3 1006.7 640 1009.7C682.7 1012.7 725.3 1027.3 768 1025.2C810.7 1023 853.3 1004 896 994C938.7 984 981.3 983 1024 988.2C1066.7 993.3 1109.3 1004.7 1152 1012C1194.7 1019.3 1237.3 1022.7 1280 1029.2C1322.7 1035.7 1365.3 1045.3 1408 1030.7C1450.7 1016 1493.3 977 1536 965C1578.7 953 1621.3 968 1664 976.7C1706.7 985.3 1749.3 987.7 1792 988.2C1834.7 988.7 1877.3 987.3 1920 981.7C1962.7 976 2005.3 966 2026.7 961L2048 956L2048 1153L2026.7 1153C2005.3 1153 1962.7 1153 1920 1153C1877.3 1153 1834.7 1153 1792 1153C1749.3 1153 1706.7 1153 1664 1153C1621.3 1153 1578.7 1153 1536 1153C1493.3 1153 1450.7 1153 1408 1153C1365.3 1153 1322.7 1153 1280 1153C1237.3 1153 1194.7 1153 1152 1153C1109.3 1153 1066.7 1153 1024 1153C981.3 1153 938.7 1153 896 1153C853.3 1153 810.7 1153 768 1153C725.3 1153 682.7 1153 640 1153C597.3 1153 554.7 1153 512 1153C469.3 1153 426.7 1153 384 1153C341.3 1153 298.7 1153 256 1153C213.3 1153 170.7 1153 128 1153C85.3 1153 42.7 1153 21.3 1153L0 1153Z" fill="#28537e"></path><path d="M0 1009L21.3 1017C42.7 1025 85.3 1041 128 1041.5C170.7 1042 213.3 1027 256 1024.8C298.7 1022.7 341.3 1033.3 384 1037.8C426.7 1042.3 469.3 1040.7 512 1031C554.7 1021.3 597.3 1003.7 640 1004.8C682.7 1006 725.3 1026 768 1030.8C810.7 1035.7 853.3 1025.3 896 1029.5C938.7 1033.7 981.3 1052.3 1024 1057.7C1066.7 1063 1109.3 1055 1152 1039.8C1194.7 1024.7 1237.3 1002.3 1280 1009.2C1322.7 1016 1365.3 1052 1408 1058.8C1450.7 1065.7 1493.3 1043.3 1536 1029.5C1578.7 1015.7 1621.3 1010.3 1664 1002.8C1706.7 995.3 1749.3 985.7 1792 984.2C1834.7 982.7 1877.3 989.3 1920 1002.2C1962.7 1015 2005.3 1034 2026.7 1043.5L2048 1053L2048 1153L2026.7 1153C2005.3 1153 1962.7 1153 1920 1153C1877.3 1153 1834.7 1153 1792 1153C1749.3 1153 1706.7 1153 1664 1153C1621.3 1153 1578.7 1153 1536 1153C1493.3 1153 1450.7 1153 1408 1153C1365.3 1153 1322.7 1153 1280 1153C1237.3 1153 1194.7 1153 1152 1153C1109.3 1153 1066.7 1153 1024 1153C981.3 1153 938.7 1153 896 1153C853.3 1153 810.7 1153 768 1153C725.3 1153 682.7 1153 640 1153C597.3 1153 554.7 1153 512 1153C469.3 1153 426.7 1153 384 1153C341.3 1153 298.7 1153 256 1153C213.3 1153 170.7 1153 128 1153C85.3 1153 42.7 1153 21.3 1153L0 1153Z" fill="#2d456f"></path><path d="M0 1040L21.3 1037.2C42.7 1034.3 85.3 1028.7 128 1034.5C170.7 1040.3 213.3 1057.7 256 1063C298.7 1068.3 341.3 1061.7 384 1067.2C426.7 1072.7 469.3 1090.3 512 1094.7C554.7 1099 597.3 1090 640 1077C682.7 1064 725.3 1047 768 1038C810.7 1029 853.3 1028 896 1031.5C938.7 1035 981.3 1043 1024 1058C1066.7 1073 1109.3 1095 1152 1095.2C1194.7 1095.3 1237.3 1073.7 1280 1062.2C1322.7 1050.7 1365.3 1049.3 1408 1058.8C1450.7 1068.3 1493.3 1088.7 1536 1096.7C1578.7 1104.7 1621.3 1100.3 1664 1099.5C1706.7 1098.7 1749.3 1101.3 1792 1103C1834.7 1104.7 1877.3 1105.3 1920 1099C1962.7 1092.7 2005.3 1079.3 2026.7 1072.7L2048 1066L2048 1153L2026.7 1153C2005.3 1153 1962.7 1153 1920 1153C1877.3 1153 1834.7 1153 1792 1153C1749.3 1153 1706.7 1153 1664 1153C1621.3 1153 1578.7 1153 1536 1153C1493.3 1153 1450.7 1153 1408 1153C1365.3 1153 1322.7 1153 1280 1153C1237.3 1153 1194.7 1153 1152 1153C1109.3 1153 1066.7 1153 1024 1153C981.3 1153 938.7 1153 896 1153C853.3 1153 810.7 1153 768 1153C725.3 1153 682.7 1153 640 1153C597.3 1153 554.7 1153 512 1153C469.3 1153 426.7 1153 384 1153C341.3 1153 298.7 1153 256 1153C213.3 1153 170.7 1153 128 1153C85.3 1153 42.7 1153 21.3 1153L0 1153Z" fill="#2f375f"></path><path d="M0 1084L21.3 1089.8C42.7 1095.7 85.3 1107.3 128 1104C170.7 1100.7 213.3 1082.3 256 1085.3C298.7 1088.3 341.3 1112.7 384 1119.7C426.7 1126.7 469.3 1116.3 512 1114.2C554.7 1112 597.3 1118 640 1123.5C682.7 1129 725.3 1134 768 1130.7C810.7 1127.3 853.3 1115.7 896 1116.8C938.7 1118 981.3 1132 1024 1133C1066.7 1134 1109.3 1122 1152 1112.8C1194.7 1103.7 1237.3 1097.3 1280 1097.3C1322.7 1097.3 1365.3 1103.7 1408 1112.5C1450.7 1121.3 1493.3 1132.7 1536 1131.8C1578.7 1131 1621.3 1118 1664 1118.3C1706.7 1118.7 1749.3 1132.3 1792 1135.2C1834.7 1138 1877.3 1130 1920 1122.3C1962.7 1114.7 2005.3 1107.3 2026.7 1103.7L2048 1100L2048 1153L2026.7 1153C2005.3 1153 1962.7 1153 1920 1153C1877.3 1153 1834.7 1153 1792 1153C1749.3 1153 1706.7 1153 1664 1153C1621.3 1153 1578.7 1153 1536 1153C1493.3 1153 1450.7 1153 1408 1153C1365.3 1153 1322.7 1153 1280 1153C1237.3 1153 1194.7 1153 1152 1153C1109.3 1153 1066.7 1153 1024 1153C981.3 1153 938.7 1153 896 1153C853.3 1153 810.7 1153 768 1153C725.3 1153 682.7 1153 640 1153C597.3 1153 554.7 1153 512 1153C469.3 1153 426.7 1153 384 1153C341.3 1153 298.7 1153 256 1153C213.3 1153 170.7 1153 128 1153C85.3 1153 42.7 1153 21.3 1153L0 1153Z" fill="#2e294e"></path></svg>